<?xml version="1.0" encoding="utf-8"?>
<svg viewBox="348.947 16.273 888.898 666.117" xmlns="http://www.w3.org/2000/svg" xmlns:xlink="http://www.w3.org/1999/xlink">
  <animate attributeName="rx" values="0;5;0" dur="10s" repeatCount="indefinite"/>
  <defs>
    <path id="path-0" d="M 347.921 160.049 C 351.227 155.243 356.198 151.677 358.545 151.677 C 363.699 150.114 367.983 150.819 371.751 149.547 C 376.606 148.723 380.59 149.927 384.567 149.927 C 388.773 150.676 392.288 150.348 394.092 152.152 L 394.881 152.678 C 395.585 153.382 396.66 153.932 397.51 154.781" style="fill: none;"/>
    <filter id="filter3669" y="-.88119" width="1.3751" x="-.18755" height="2.7624">
      <feGaussianBlur id="feGaussianBlur3671" stdDeviation="1.4178087"/>
    </filter>
    <clipPath id="clipPath3818" clipPathUnits="userSpaceOnUse">
      <path id="path3820" stroke="#000" stroke-width="1px" fill="none" d="m547.86 5.2193l-0.72 20.715c37.62 22.244 86.67 21.213 137.15 25l0.71-12.858-137.14-32.857z"/>
    </clipPath>
    <filter id="filter4019">
      <feGaussianBlur id="feGaussianBlur4021" stdDeviation="0.71796772"/>
    </filter>
    <filter id="filter4291" y="-.050079" width="1.6396" x="-.31981" height="1.1002">
      <feGaussianBlur id="feGaussianBlur4293" stdDeviation="1.436794"/>
    </filter>
    <radialGradient id="radialGradient2538" gradientUnits="userSpaceOnUse" cy="235.94" cx="566.43" gradientTransform="matrix(1,-1.06859e-6,2.07985e-6,3.22794,-4.9071e-4,-525.651)" r="9.0714">
      <stop id="stop4233" offset="0"/>
      <stop id="stop4235" stop-opacity="0" offset="1"/>
    </radialGradient>
  </defs>
  <path id="a7c5c542-e960-402d-86b7-e161a3e2924b-14" data-name="Path 2996" d="M 761.144 316.167 C 753.775 317.23 747.235 311.377 747.477 303.936 L 707.799 288.688 L 725.765 275.837 L 760.689 292.287 C 769.901 293.2 774.67 303.744 769.272 311.266 C 767.349 313.945 764.41 315.717 761.143 316.167 Z" style="fill: rgb(176, 108, 73);" transform="matrix(1, 0, 0, 1, 133.333359, -11.540441)"/>
  <path id="b1c26e50-8516-4a28-8986-b88082ea0766-15" data-name="Path 2997" d="M 730.643 310.409 L 736.838 288.556 L 736.533 288.348 L 678.503 248.928 L 628.34 198.595 L 599.119 210.27 L 601.038 219.519 L 601.163 219.632 L 667.858 279.37 L 667.92 279.4 Z" style="fill: rgb(24, 135, 133);" transform="matrix(0.999848, -0.017452, 0.017452, 0.999848, 128.993522, 0.155878)"/>
  <polygon points="434.278 284.709 344.469 272.12 352.374 217.013 418.492 217.013 434.278 284.709" fill="#ffb6b6" transform="matrix(1, 0, 0, 1, 362.261215, 58.399821)"/>
  <polygon points="911.255 533.556 929.679 537.837 954.957 468.816 927.768 462.498 911.255 533.556" style="fill: rgb(176, 108, 73);" transform="matrix(0.087156, -0.996195, 0.996195, 0.087156, 353.516036, 1386.13011)"/>
  <path d="M 955.867 529.318 L 969.079 532.388 L 974.335 520.463 L 977.477 534.34 L 1012.517 542.483 C 1018.58 543.892 1023.895 538.209 1022.084 532.254 C 1021.735 531.107 1021.136 530.051 1020.329 529.164 L 996.838 503.337 L 999.768 490.727 L 969.928 485.644 Z" style="" transform="matrix(0.241922, -0.970296, 0.970296, 0.241922, 250.95796, 1349.555699)"/>
  <polygon points="976.427 443.956 995.341 443.956 1004.342 371.004 976.427 371.004 976.427 443.956" style="fill: rgb(176, 108, 73);" transform="matrix(0.275638, -0.961261, 0.961261, 0.275638, 325.701946, 1247.181432)"/>
  <path d="M 1013.545 435.261 L 1027.109 435.261 L 1029.53 422.456 L 1035.73 435.261 L 1071.704 435.261 C 1077.929 435.262 1081.82 428.523 1078.708 423.132 C 1078.109 422.094 1077.286 421.202 1076.299 420.52 L 1047.571 400.68 L 1047.571 387.734 L 1017.355 389.538 Z" style="" transform="matrix(0.275637, -0.961262, 0.961262, 0.275637, 362.615149, 1304.201352)"/>
  <path id="be563295-45cb-4583-a2cc-1b51a6e0af2d-16" data-name="Path 3002" d="M 634.658 176.361 L 634.658 146.647 C 634.673 115.997 601.503 96.824 574.951 112.136 C 562.616 119.249 555.019 132.408 555.026 146.647 C 548.008 161.271 552.398 168.223 555.026 176.361 C 555.031 179.311 557.421 181.702 560.372 181.707 L 629.309 181.707 C 632.26 181.703 634.653 179.312 634.658 176.361 Z" style="" transform="matrix(0.999848, 0.017452, -0.017452, 0.999848, 135.940757, -21.866597)"/>
  <circle id="e6de18e8-d8d7-4938-bc85-74b57e27a471" data-name="Ellipse 572" cx="598.777" cy="161.935" r="29.192" style="fill: rgb(176, 108, 73);" transform="matrix(1, 0, 0, 1, 133.333359, -11.540441)"/>
  <path id="b4d76e12-782b-49dd-9dc2-b18e04e0f0ec-17" data-name="Path 3003" d="M 634.622 150.389 C 634.602 133.003 620.512 118.913 603.126 118.894 L 597.183 118.894 C 579.796 118.913 565.707 133.003 565.687 150.389 L 565.687 150.984 C 570.138 154.027 574.363 154.472 578.246 150.984 L 582.529 138.99 L 583.386 150.984 L 589.878 150.984 L 592.042 144.933 L 592.474 150.984 C 601.242 158.451 617.822 154.873 634.622 150.984 Z" style="" transform="matrix(0.999391, 0.0349, -0.0349, 0.999391, 138.484411, -32.402302)"/>
  <path id="a580674d-06d2-46e1-9b07-6683bd33a718-18" data-name="Path 3004" d="M 580.541 311.694 L 654.866 308.866 L 659.021 260.242 C 662.225 251.342 662.277 243.695 659.175 237.529 C 656.507 232.461 652.024 228.587 646.623 226.681 L 630.36 207.038 C 626.123 201.925 619.816 198.984 613.176 199.026 L 570.917 199.315 C 569.899 198.703 563.72 195.563 551.535 200.843 C 538.319 206.57 541.388 226.47 541.421 226.67 L 541.451 226.857 L 541.596 226.985 L 569.704 250.66 Z" style="stroke-miterlimit: 18; filter: none; fill: rgb(24, 135, 133);" transform="matrix(1, -0.000001, 0.000001, 1, 133.333104, -11.53984)"/>
  <path d="M 540.105 322.933 L 512.128 299.368 L 511.848 299.122 L 511.819 298.945 L 511.789 298.759 C 511.772 298.657 510.984 293.551 511.877 287.761 C 512.766 281.99 515.456 275.392 522.198 272.391 C 534.595 267.118 540.555 270.066 541.911 270.821 L 584.034 270.533 C 590.781 270.515 597.283 273.547 601.606 278.726 L 617.783 298.264 C 623.206 300.233 627.757 304.171 630.483 309.312 C 633.612 315.592 633.572 323.4 630.375 332.357 L 626.188 381.356 L 550.986 384.218 Z M 541.026 322.402 L 551.819 383.185 L 625.267 380.39 L 629.39 332.141 L 629.412 332.08 C 632.601 323.263 632.665 315.816 629.592 309.766 C 626.981 304.772 622.639 301.019 617.318 299.159 L 617.188 299.114 L 600.836 279.364 C 596.686 274.318 590.573 271.468 584.041 271.533 L 541.641 271.823 L 541.521 271.751 C 540.518 271.147 534.568 268.022 522.595 273.309 C 516.12 276.035 513.737 282.252 512.865 287.913 C 511.996 293.554 512.759 298.499 512.775 298.596 L 512.777 298.607 L 512.784 298.613 Z" style="fill: none;" transform="matrix(1, 0, 0, 1, 158.304321, -92.182028)"/>
  <g id="layer1" transform="matrix(0.272646, -0.436328, 0.354204, 0.221331, 627.111694, 530.910339)">
    <path id="path3226" d="m321.84 626.17c0.25-71.08-0.41-151.02-0.43-215.78-0.03-64.76 4.5-79.65 1.46-112.15s-18.1-77.61-21.16-109.9c-5.95-62.84 1.41-75.1 40.43-150.98 21.34 0.387 40.57 13.3 63.86 17.945 18.81 3.752 48.41-0.122 69.04 7.591 13.99 44.734 21.96 82.484 31.27 125.47 13.42 61.96 7.89 128.54 39.1 192.8 24.77 62.93 44.13 143.56 65.45 217.76-11.61 21.58-42.93 22.42-61.64 24.66-24.67-40.52-23.77-98.06-37.98-146.17-10.82-41.09-20.87-82.17-46.48-123.26l-67.65-172.02c-4.1 2.67-6.64 86.13-12.17 206.5-2.96 64.59 9.11 109.64 10.34 143.17 1.97 36.31 3.61 50.78 5.84 64.12 3.89 23.32-57.63 56.72-79.28 30.24z" stroke="#000" stroke-linecap="round" stroke-width="1.4764" style="fill: rgb(0, 0, 100);"/>
    <path id="path3317" d="m557.86 234.51c5.71 2.8 11.43 4.7 17.14 0" fill-rule="evenodd" transform="matrix(1.76 0 0 1.4892 -649.05 16.662)" filter="url(#filter3669)" stroke="url(#radialGradient2538)" stroke-width="1px" style="fill: rgb(0, 0, 100);"/>
    <path id="path3323" fill-rule="evenodd" d="m397.99 178.39l-6.73 0.97 29.12-36.45-22.39 35.48z" style="fill: rgb(0, 0, 100);"/>
    <g id="g4341" stroke-width="1px" fill="none" transform="matrix(-1.1614 -.20666 -.24168 1.2326 1119.1 142.18)">
      <path id="path4247" filter="url(#filter4291)" stroke="#000" d="m605 41.648c-0.78 18.02 7.92 40.194 0 56.428l-6.43 11.434" style="fill: rgb(0, 0, 100);"/>
      <path id="path4249" stroke="#161562" d="m601 41.648c-0.78 18.02 7.92 40.194 0 56.428l-6.43 11.434" style="fill: rgb(0, 0, 100);"/>
    </g>
    <path id="path3321" d="m599.86 111.08v7.85l-24.29-31.425 24.29 23.575z" fill-rule="evenodd" transform="matrix(1.4144 0 0 1.5412 -450.25 4.3956)" filter="url(#filter4019)" style="fill: rgb(0, 0, 100);"/>
    <g id="g4353" opacity=".46316" fill="none" transform="matrix(1.2601 .69994 -.64234 1.3731 -315.13 -376.93)">
      <path id="path4347" d="m605 41.648c-0.78 18.02 7.92 40.194 0 56.428l-6.43 11.434" transform="matrix(.75840 0 0 .67842 92.1 37.518)" filter="url(#filter4291)" stroke="#000" stroke-width="1px" style="fill: rgb(0, 0, 100);"/>
      <path id="path4349" stroke="#161562" stroke-width=".7173px" d="m555.33 65.773c-0.59 12.225 6 27.269 0 38.287l-4.88 7.75" style="fill: rgb(0, 0, 100);"/>
    </g>
    <g id="g4357" fill="none" transform="matrix(-1.1095 .53133 .56557 1.0423 1037.6 -254.71)">
      <path id="path4359" d="m605 41.648c-0.78 18.02 7.92 40.194 0 56.428l-6.43 11.434" transform="matrix(.75840 0 0 .67842 92.1 37.518)" filter="url(#filter4291)" stroke="#000" stroke-width="1px" style="fill: rgb(0, 0, 100);"/>
      <path id="path4361" stroke="#161562" stroke-width=".7173px" d="m555.33 65.773c-0.59 12.225 6 27.269 0 38.287l-4.88 7.75" style="fill: rgb(0, 0, 100);"/>
    </g>
    <path id="path3814" d="m551.54 392.32c0.18-46.12-7.36-86.87-7.38-128.89-0.01-42.02 3.19-51.68 1.04-72.77-2.15-21.08-12.8-50.36-14.96-71.31-4.21-40.769 1-48.724 28.59-97.964 15.08 0.254 28.68 8.633 45.15 11.647 13.3 2.434 34.22-0.079 48.81 4.925 9.89 29.029 15.53 53.518 22.11 81.412 9.49 40.2 5.57 83.4 27.64 125.1 17.52 40.83 31.2 93.15 46.28 141.3-8.21 14-23.28 10.84-36.51 12.29-17.45-26.29-23.88-59.92-33.93-91.14-7.64-26.66-14.75-53.31-32.86-79.97l-47.83-111.62c-2.9 1.74-4.69 55.88-8.6 133.99-2.1 41.91 6.44 71.14 7.31 92.89 1.39 23.56-2.73 34.77 0.59 43 3.79 9.41-29.96 23.28-45.45 7.11z" clip-path="url(#clipPath3818)" transform="matrix(1.3849 0 0 1.5417 -431.11 4.376)" stroke="#000" stroke-linecap="round" style="fill: rgb(0, 0, 100);"/>
    <path id="path4375" d="m383.57 234.15a3.9286 5.3571 0 1 1 -7.86 0 3.9286 5.3571 0 1 1 7.86 0z" transform="matrix(1.4441 0 0 1.0512 -142.52 -183.07)" stroke="#161562" stroke-linecap="round" style="fill: rgb(0, 0, 100);"/>
    <rect id="rect4377" transform="matrix(.98868 .15003 -.33165 .94340 0 0)" height="22.363" width="8.1198" stroke="#161562" stroke-linecap="round" y="-12.154" x="359.46" stroke-width="1.1791" style="fill: rgb(0, 0, 100);"/>
    <path id="rect4379" d="m441.98 58.603l9.1 0.252 1.41 22.473-8.39-0.251-2.12-22.474z" stroke="#161562" stroke-linecap="round" stroke-width="1.1687" style="fill: rgb(0, 0, 100);"/>
  </g>
  <path d="M 786.584 374.7 C 786.412 462.038 691.759 516.438 616.208 472.621 C 540.657 428.803 540.872 319.631 616.594 276.111 C 677.328 241.205 754.871 269.133 779.4 334.748 C 779.648 335.415 779.889 336.081 780.124 336.754 L 780.124 336.76 C 781.171 339.717 782.093 342.729 782.891 345.796 C 785.35 355.233 786.592 364.947 786.584 374.7 Z" style="fill: rgb(0, 105, 147);" transform="matrix(1, 0, 0, 1, 133.333359, -11.540441)"/>
  <path d="M 639.386 391.979 C 628.985 386.354 616.569 385.846 605.743 390.603 C 601.039 392.65 596.085 396.322 594.516 402.954 C 600.863 399.208 609.078 405.126 610.712 414.62 L 610.33 414.725 C 609.468 421.301 611.393 428.46 615.122 432.538 C 615.683 428.812 617.891 425.537 621.135 423.619 C 623.874 421.819 626.904 420.511 628.995 417.416 C 631.473 413.747 632.103 408.384 633.087 403.492 C 634.072 398.6 635.94 393.342 639.386 391.979 Z" style="fill: rgb(60, 179, 113);" transform="matrix(0, -1, 1, 0, 340.332489, 1015.362391)"/>
  <path d="M 673.774 461.919 C 672.016 464.558 669.668 466.215 667.562 468.277 C 665.13 470.489 663.534 473.472 663.044 476.723 C 662.777 479.02 663.189 481.355 663.132 483.677 C 663.075 486 662.301 488.614 660.721 489.192 C 658.227 490.093 656.324 485.46 653.76 485.137 C 651.723 484.883 649.889 488.088 650.479 490.867 C 651.07 493.646 653.843 494.877 655.435 493.062 C 656.876 495.48 655.86 499.865 653.697 500.607 C 653.468 502.13 653.24 503.647 653.018 505.17 C 647.548 501.343 642.021 497.454 637.37 491.85 C 632.197 485.672 628.988 478.088 628.156 470.073 C 627.553 463.632 628.448 456.265 625.491 451.309 C 623.124 447.343 619.063 446.467 615.408 446.715 C 614.741 446.759 614.069 446.835 613.402 446.918 C 615.558 440.444 618.296 434.178 621.582 428.198 C 622.325 427.879 623.016 427.449 623.631 426.923 C 627.033 424.036 628.543 418.191 631.303 414.149 C 631.481 413.889 631.665 413.635 631.855 413.388 C 634.679 409.701 638.461 407.804 642.116 406.04 C 650.207 402.112 658.532 398.133 667.073 398.679 L 664.643 398.914 C 661.806 406.858 658.968 414.803 656.127 422.747 C 655.695 423.966 655.26 425.186 654.82 426.409 C 653.208 430.927 651.545 435.737 651.793 440.794 C 651.939 443.789 652.979 446.987 654.959 448.015 C 656.806 448.967 658.824 447.8 660.607 446.645 C 661.362 446.162 662.111 445.68 662.866 445.192 C 665.575 443.447 668.577 441.657 671.439 442.825 C 674.059 443.891 675.995 447.451 676.363 451.29 C 676.7 455.022 675.79 458.76 673.774 461.919 Z" style="fill: rgb(60, 179, 113);" transform="matrix(0, -1, 1, 0, 326.350906, 1085.275599)"/>
  <path d="M 740.882 401.699 C 732.968 396.827 725.055 391.955 717.141 387.082 L 717.276 386.736 C 712.355 388.61 710.313 397.356 711.126 404.509 C 711.939 411.661 714.696 418.055 716.089 425.024 C 717.967 434.561 717.258 444.427 714.036 453.597 C 724.442 441.921 733.651 429.232 741.525 415.718 C 742.625 414.015 743.463 412.157 744.011 410.205 C 744.592 408.125 744.385 405.903 743.43 403.966 C 742.782 403.011 741.906 402.232 740.882 401.699 Z" style="fill: rgb(60, 179, 113);" transform="matrix(0, -1, 1, 0, 440.810196, 1136.269373)"/>
  <path d="M 616.882 443.411 C 615.953 445.406 615.81 447.678 616.481 449.774 C 617.262 451.463 618.678 452.775 620.422 453.424 L 624.794 455.592 C 626.249 456.313 627.817 457.041 629.3 456.448 C 631.088 455.732 632.329 452.928 632.008 450.325 C 631.666 447.555 629.92 445.649 628.305 444.027 C 626.045 441.756 623.786 439.485 621.526 437.215 L 620.252 438.774 C 618.874 440.118 617.735 441.686 616.882 443.411 Z" style="fill: rgb(60, 179, 113);" transform="matrix(0, -1, 1, 0, 310.4543, 1059.461512)"/>
  <path d="M 689.712 326.574 C 691.679 327.038 693.646 327.501 695.613 327.964 C 695.271 334.608 691.977 340.757 687.561 342.984 C 685.721 343.911 683.671 344.253 682.148 345.985 C 680.771 347.559 680.073 350.008 679.432 352.35 C 678.309 356.437 677.186 360.523 676.063 364.61 C 674.857 369.013 673.309 373.906 670.174 375.492 C 667.483 376.856 664.406 375.188 662.337 372.389 C 660.269 369.591 659.006 365.828 657.781 362.16 C 657.857 366.158 655.998 370.08 653.365 371.469 C 650.725 372.859 647.514 371.602 645.75 368.499 C 644.481 366.272 643.954 363.334 642.71 361.075 C 641.467 358.816 638.859 357.522 637.501 359.641 C 636.606 361.05 636.72 363.207 636.276 364.997 C 635.818 367.432 633.866 369.309 631.415 369.673 C 629.193 369.622 627.09 368.661 625.597 367.015 C 621.711 363.04 619.181 357.938 618.369 352.439 C 617.818 349.802 617.888 347.074 618.572 344.469 C 619.353 342.001 621.237 340.097 623.109 340.566 C 624.34 337.965 621.91 334.513 619.721 334.817 C 617.525 335.122 615.805 337.476 614.003 339.285 C 612.207 341.093 609.695 342.407 607.886 340.611 C 607.97 341.979 606.93 343.156 605.562 343.24 C 605.497 343.244 605.432 343.245 605.367 343.244 C 604.164 342.899 603.047 342.307 602.086 341.505 C 597.943 338.923 592.682 340.636 589.738 345.522 C 591.578 337.692 594.275 328.706 599.929 326.866 C 602.239 326.111 604.758 326.733 606.941 325.426 C 610.805 323.11 611.586 314.359 608.248 310.749 C 608.673 314.162 608.591 318.147 606.788 320.483 C 604.986 322.818 601.204 321.295 601.433 317.843 C 601.246 319.613 599.212 320.517 597.773 319.47 C 597.511 319.28 597.292 319.037 597.131 318.757 C 595.931 316.929 596.033 313.94 596.883 311.758 C 597.76 309.781 599.017 307.995 600.583 306.504 C 603.597 303.274 606.655 300.006 610.145 297.975 C 613.642 295.945 617.677 295.259 621.18 297.277 C 623.027 298.343 624.651 300.12 626.536 301.059 C 628.398 302.215 630.845 301.642 632.001 299.779 C 632.022 299.745 632.043 299.71 632.063 299.676 C 633.465 297.214 632.805 293.559 633.326 290.481 C 634.258 285.043 639.696 282.498 642.711 286.09 C 640.458 285.512 638.129 288.178 637.85 291.408 C 637.564 294.637 639.195 297.899 641.378 298.876 C 645.046 300.501 648.637 296.414 651.41 292.632 C 654.304 288.673 657.202 284.715 660.104 280.76 C 660.567 280.086 661.087 279.454 661.658 278.869 C 663.544 277.03 666.533 276.969 668.492 278.729 C 671.424 281.121 672.801 286.026 675.206 289.402 C 678.696 294.307 683.919 295.5 688.779 296.452 C 692.402 297.157 696.028 297.865 699.656 298.578 C 702.074 303.077 704.183 307.734 705.969 312.519 C 699.317 315.552 693.675 320.431 689.712 326.574 Z" style="fill: rgb(60, 179, 113);" transform="matrix(0, -1, 1, 0, 454.474411, 963.025477)"/>
  <path d="M 648.015 267.61 C 647.271 269.801 646.865 272.093 646.809 274.406 C 643.7 270.611 643.205 263.498 645.248 258.574 C 646.295 261.531 647.217 264.543 648.015 267.61 Z" style="fill: rgb(60, 179, 113);" transform="matrix(0, -1, 1, 0, 512.860611, 900.966822)"/>
  <path d="M 746.705 278.487 C 743.987 284.007 740.825 289.298 737.25 294.307 C 734.966 293.329 732.51 295.074 730.372 296.712 C 728.138 298.425 725.454 300.094 723.163 298.533 C 720.822 296.934 720.067 292.46 720.809 288.913 C 721.662 285.641 723.155 282.57 725.2 279.877 C 727.104 277.034 729.141 274.083 731.787 272.979 C 734.439 271.875 737.847 273.436 738.621 277.205 L 740.499 277.142 C 739.446 275.695 739.998 272.7 741.413 272.173 C 743.044 271.558 744.459 273.798 745.423 275.778 C 745.855 276.672 746.293 277.573 746.705 278.487 Z" style="fill: rgb(60, 179, 113);" transform="matrix(0, -1, 1, 0, 581.341202, 1007.691248)"/>
  <path d="M 730.086 361.113 C 726.049 361.367 722.851 356.397 720.726 351.508 C 718.601 346.618 716.662 341.027 713.019 338.538 C 710.938 337.116 708.565 336.921 706.307 336.232 C 703.709 335.575 701.587 333.707 700.607 331.213 L 698.046 330.179 C 694.464 331.969 691.183 334.308 688.323 337.112 C 685.054 340.584 683.018 345.035 682.529 349.778 C 682.04 354.904 683.846 360.62 687.222 362.546 C 689.889 364.067 692.994 363.108 695.696 364.501 C 699.071 366.242 701.075 371.297 701.834 376.289 C 702.592 381.281 702.4 386.468 702.943 391.516 C 703.486 396.565 704.981 401.818 708.077 404.405 C 711.951 407.642 717.635 404.952 719.373 399.059 C 720.225 396.168 720.196 392.906 720.834 389.906 C 721.957 384.621 724.987 380.701 727.39 376.366 C 729.793 372.031 731.685 366.144 730.086 361.113 Z" style="fill: rgb(60, 179, 113);" transform="matrix(0, -1, 1, 0, 471.911484, 1063.008997)"/>
  <path d="M 643.099 383.565 C 643.475 383.911 643.826 384.284 644.15 384.681 C 644.832 385.857 644.807 387.315 644.085 388.467 C 645.068 388.411 645.983 387.946 646.608 387.185 C 647.345 386.346 647.993 385.433 648.542 384.46 C 649.065 383.787 649.273 382.921 649.113 382.084 C 648.922 381.539 648.471 381.307 648.155 380.898 C 647.716 380.097 647.417 379.228 647.27 378.328 C 646.912 376.606 645.611 375.235 643.911 374.788 L 644.113 374.827 C 643.407 375.246 643.046 376.067 643.214 376.871 C 643.337 377.663 643.846 378.32 643.795 379.128 C 643.722 380.289 642.562 380.834 642.49 381.996 C 642.479 382.578 642.697 383.142 643.099 383.565 Z" style="fill: rgb(60, 179, 113);" transform="matrix(0, -1, 1, 0, 397.533524, 1015.914759)"/>
  <path d="M618.10843,406.2657l.018-.00351a3.241,3.241,0,0,0,.34448-.36693Z" fill="#6c63ff" transform="matrix(1, 0, 0, 1, 158.304321, -92.182028)"/>
  <path d="M 633.466 395.256 C 634.455 394.389 634.877 393.043 634.562 391.766 C 634.269 390.445 633.231 389.557 632.273 389.801 C 631.709 390.374 630.889 390.615 630.104 390.44 C 629.512 390.288 628.863 389.895 628.349 390.341 C 628.055 390.674 627.85 391.076 627.751 391.508 C 627.561 392.092 627.371 392.675 627.181 393.258 C 627.091 393.467 627.067 393.699 627.114 393.921 C 627.188 394.103 627.351 394.233 627.545 394.264 C 628.685 394.6 629.825 394.936 630.965 395.272 C 631.76 395.639 632.676 395.633 633.466 395.256 Z" style="fill: rgb(60, 179, 113);" transform="matrix(0, -1, 1, 0, 371.559143, 1011.989039)"/>
  <path d="M 711.677 306.55 C 711.15 305.688 710.623 304.825 710.096 303.962 C 709.578 302.963 708.871 302.074 708.013 301.346 C 707.231 300.691 706.067 300.794 705.412 301.576 L 705.384 301.609 L 705.449 302.102 C 706.86 303.615 707.822 305.491 708.226 307.52 C 708.346 308.402 708.304 309.315 708.409 310.2 C 708.432 311.03 708.783 311.816 709.386 312.386 C 710.216 312.941 711.19 312.123 711.781 311.126 C 712.309 310.307 712.546 309.334 712.453 308.363 C 712.321 307.712 712.057 307.095 711.677 306.55 Z" style="fill: rgb(60, 179, 113);" transform="matrix(0, -1, 1, 0, 535.521439, 1004.12826)"/>
  <path d="M 706.443 301.499 C 706.543 300.692 706.478 299.872 706.25 299.09 C 706.212 298.033 706.493 296.988 707.055 296.092 C 707.613 295.246 708.036 294.319 708.309 293.343 C 708.423 292.898 708.403 292.429 708.249 291.997 C 708.074 291.605 707.652 291.426 707.409 291.736 L 707.928 292.07 C 707.227 291.945 706.508 291.98 705.823 292.172 C 705.03 292.476 704.435 293.147 704.228 293.971 C 704.142 294.603 704.002 295.228 703.809 295.837 C 703.5 296.473 702.901 296.684 702.525 297.242 C 702.003 298.247 702.023 299.448 702.578 300.435 C 703.05 301.23 703.801 301.821 704.686 302.093 C 705.319 302.32 706.153 302.332 706.443 301.499 Z" style="fill: rgb(60, 179, 113);" transform="matrix(0, -1, 1, 0, 541.695938, 990.625819)"/>
  <path d="M 712.227 296.554 C 712.456 297.15 712.763 297.713 713.14 298.228 C 713.844 298.938 714.802 298.502 715.658 298.329 C 717.238 298.08 718.829 298.718 719.799 299.991 C 719.126 296.635 716.865 293.814 713.736 292.427 C 711.732 291.733 709.621 291.403 707.501 291.452 L 707.139 291.544 C 708.062 294.23 710.959 294.17 712.227 296.554 Z" style="fill: rgb(60, 179, 113);" transform="matrix(0, -1, 1, 0, 551.083237, 997.647669)"/>
  <path d="M666.024,498.03294l.00527.01171.10536-.2029Z" fill="#6c63ff" transform="matrix(1, 0, 0, 1, 158.304321, -92.182028)"/>
  <path d="M663.7904,502.3562a19.84407,19.84407,0,0,0-1.25307,2.75264,23.96279,23.96279,0,0,0-.90815,4.71c-.11341.90772-.14846,2.06706.42027,2.50936a.80667.80667,0,0,0,1.0553-.14334,4.17322,4.17322,0,0,0,.765-1.1371,26.19518,26.19518,0,0,0,2.58253-6.12933,10.666,10.666,0,0,0-.423-6.87381Q664.91,500.2005,663.7904,502.3562Z" style="fill: rgb(54, 159, 16);" transform="matrix(1, 0, 0, 1, 158.304321, -92.182028)"/>
  <path d="M 601.644 368.333 C 602.369 369.041 603.446 369.252 604.385 368.868 C 605.335 368.452 606.208 367.876 606.963 367.164 C 607.589 366.701 608.119 366.123 608.526 365.459 C 608.979 364.658 609.094 363.71 608.846 362.825 C 608.491 361.97 607.719 361.36 606.806 361.211 C 605.541 360.836 604.275 360.461 603.01 360.085 L 603.925 359.26 C 602.983 358.755 601.941 359.693 601.353 360.854 C 600.975 361.613 600.712 362.423 600.572 363.258 C 600.167 365.025 600.559 366.881 601.644 368.333 Z" style="fill: rgb(60, 179, 113);" transform="matrix(0, -1, 1, 0, 373.939651, 957.24325)"/>
  <path d="M 597.501 345.458 C 598.242 346.274 599.488 346.376 600.351 345.69 C 601.074 345.147 601.532 344.321 601.611 343.42 C 601.701 342.425 601.208 341.318 600.505 341.232 L 600.666 340.3 C 599.312 340.056 597.646 340.007 596.92 341.651 C 596.422 342.933 596.643 344.383 597.501 345.458 Z" style="fill: rgb(60, 179, 113);" transform="matrix(0, -1, 1, 0, 389.314255, 930.758082)"/>
  <path id="b456961e-c574-43f5-93e7-af00230a566f-20" data-name="Path 3011" d="M 560.703 413.46 C 555.165 408.484 555.466 399.714 561.333 395.13 L 547.608 354.901 L 568.992 360.456 L 578.737 397.805 C 583.942 405.46 578.908 415.88 569.676 416.56 C 566.385 416.802 563.139 415.682 560.698 413.461 Z" style="fill: rgb(176, 108, 73);" transform="matrix(1, 0, 0, 1, 133.333359, -11.540441)"/>
  <path id="f9e29824-911d-4b82-8399-58a66d30c3ed-21" data-name="Path 3012" d="M 553.922 385.406 L 574.669 376.16 L 567.699 305.983 L 574.191 235.219 L 546.489 220.27 L 540.62 227.67 L 540.62 227.838 L 537.511 317.321 L 537.527 317.388 Z" style="fill: rgb(24, 135, 133);" transform="matrix(1, 0, 0, 1, 133.333359, -11.540441)"/>
  <path d="M842.91058,664.12742q-17.59676-8.092-37.96186-19.06823c-70.22005-37.85574-156.56866-96.91028-243.14046-166.28411C475.2369,409.40146,398.78571,337.9949,346.53793,277.712c-25.45122-29.36617-43.7843-54.51528-54.48878-74.74933-11.33381-21.4215-13.61952-36.60177-6.79507-45.11832,13.29583-16.59138,56.59542-1.64731,90.578,13.811l-1.24185,2.73092c-46.667-21.22849-77.56239-26.43657-86.99482-14.66559C275.5812,174.71248,297.89166,217.00214,348.805,275.747c52.13291,60.15055,128.44471,131.42315,214.87923,200.68763C650.11872,545.698,736.3074,604.64571,806.37267,642.41845c68.42448,36.88923,114.56144,49.4486,126.57541,34.45618,9.97469-12.44762-3.6314-43.79839-38.31085-88.27838l2.36583-1.8443c25.19849,32.31978,52.29591,74.51591,38.28634,91.99905-6.82489,8.51635-22.13814,9.59295-45.51467,3.19955C876.44938,678.30576,860.7673,672.339,842.91058,664.12742Z" style="fill: rgb(54, 159, 16);" transform="matrix(1, 0, 0, 1, 158.304321, -92.182028)"/>
  <path d="M393.68219,461.84636c-32.34363-14.87235-61.90155-29.80941-87.7899-44.4273-33.83821-19.10779-59.555-36.636-76.43572-52.09586-17.87216-16.36937-25.12559-29.899-21.55884-40.21349,6.94735-20.09335,52.75115-20.56628,89.95241-17.42482l-.25285,2.99009c-51.08652-4.31463-81.93539,1.15977-86.86485,15.41583-6.27822,18.15674,28.94387,50.49194,96.635,88.71534,69.3124,39.13879,165.134,80.62863,269.81607,116.82341C681.86436,567.827,782.84823,594.38965,861.532,606.42485c76.84327,11.75421,124.51643,8.08221,130.79464-10.07452,5.21254-15.075-18.13628-40.03156-65.74443-70.27406l1.6084-2.53227c34.5929,21.97433,74.29269,52.613,66.97115,73.78654-3.5663,10.31472-17.62824,16.47367-41.79373,18.30675-22.82558,1.73124-53.87628-.37042-92.28937-6.24682-78.8581-12.06163-180.02834-38.67129-284.87579-74.9249C510.43016,511.72217,448.12405,486.8818,393.68219,461.84636Z" transform="matrix(1, 0, 0, 1, 158.304321, -92.182028)" style="fill: rgb(0, 105, 147);"/>
  <circle cx="238.79557" cy="141.10206" r="17.48305" style="fill: rgb(0, 105, 147);" transform="matrix(1, 0, 0, 1, 362.261215, 58.399821)"/>
  <circle cx="583.40125" cy="361.27291" r="10.70234" style="fill: rgb(0, 105, 147);" transform="matrix(1, 0, 0, 1, 362.261215, 58.399821)"/>
  <circle cx="59.97671" cy="448.43695" r="17.48305" style="fill: rgb(0, 105, 147);" transform="matrix(1, 0, 0, 1, 362.261215, 58.399821)"/>
  <text style="fill: rgb(51, 51, 51); font-family: Arial, sans-serif; font-size: 18px; letter-spacing: 0.2px; white-space: pre;" transform="matrix(1.017792, 0, 0, 1.189222, 366.930695, 51.490801)"><textPath startOffset="1" xlink:href="#path-0">#TW</textPath></text>
  <g transform="matrix(-0.156207, 0.059962, 0.062461, 0.162715, 864.893661, 550.357203)"/>
  <g transform="matrix(-0.156207, 0.059962, 0.062461, 0.162715, 864.893661, 550.357203)"/>
  <g transform="matrix(-0.156207, 0.059962, 0.062461, 0.162715, 864.893661, 550.357203)"/>
  <g transform="matrix(-0.156207, 0.059962, 0.062461, 0.162715, 864.893661, 550.357203)"/>
  <g transform="matrix(-0.156207, 0.059962, 0.062461, 0.162715, 864.893661, 550.357203)"/>
  <g transform="matrix(-0.156207, 0.059962, 0.062461, 0.162715, 864.893661, 550.357203)"/>
  <g transform="matrix(-0.156207, 0.059962, 0.062461, 0.162715, 864.893661, 550.357203)"/>
  <g transform="matrix(-0.156207, 0.059962, 0.062461, 0.162715, 864.893661, 550.357203)"/>
  <g transform="matrix(-0.156207, 0.059962, 0.062461, 0.162715, 864.893661, 550.357203)"/>
  <g transform="matrix(-0.156207, 0.059962, 0.062461, 0.162715, 864.893661, 550.357203)"/>
  <g transform="matrix(-0.156207, 0.059962, 0.062461, 0.162715, 864.893661, 550.357203)"/>
  <g transform="matrix(-0.156207, 0.059962, 0.062461, 0.162715, 864.893661, 550.357203)"/>
  <g transform="matrix(-0.156207, 0.059962, 0.062461, 0.162715, 864.893661, 550.357203)"/>
  <g transform="matrix(-0.156207, 0.059962, 0.062461, 0.162715, 864.893661, 550.357203)"/>
  <g transform="matrix(-0.156207, 0.059962, 0.062461, 0.162715, 864.893661, 550.357203)"/>
</svg>