<svg id="visual" viewBox="0 0 900 600" width="900" height="600" xmlns="http://www.w3.org/2000/svg" xmlns:xlink="http://www.w3.org/1999/xlink" version="1.1"><path d="M0 362L18.8 382C37.7 402 75.3 442 112.8 459.7C150.3 477.3 187.7 472.7 225.2 474.2C262.7 475.7 300.3 483.3 337.8 490C375.3 496.7 412.7 502.3 450.2 488.8C487.7 475.3 525.3 442.7 562.8 435.7C600.3 428.7 637.7 447.3 675.2 456.7C712.7 466 750.3 466 787.8 459C825.3 452 862.7 438 881.3 431L900 424L900 0L881.3 0C862.7 0 825.3 0 787.8 0C750.3 0 712.7 0 675.2 0C637.7 0 600.3 0 562.8 0C525.3 0 487.7 0 450.2 0C412.7 0 375.3 0 337.8 0C300.3 0 262.7 0 225.2 0C187.7 0 150.3 0 112.8 0C75.3 0 37.7 0 18.8 0L0 0Z" fill="#37b371"></path><path d="M0 380L18.8 369.8C37.7 359.7 75.3 339.3 112.8 347.3C150.3 355.3 187.7 391.7 225.2 396.2C262.7 400.7 300.3 373.3 337.8 366C375.3 358.7 412.7 371.3 450.2 365.3C487.7 359.3 525.3 334.7 562.8 337C600.3 339.3 637.7 368.7 675.2 375.8C712.7 383 750.3 368 787.8 354C825.3 340 862.7 327 881.3 320.5L900 314L900 0L881.3 0C862.7 0 825.3 0 787.8 0C750.3 0 712.7 0 675.2 0C637.7 0 600.3 0 562.8 0C525.3 0 487.7 0 450.2 0C412.7 0 375.3 0 337.8 0C300.3 0 262.7 0 225.2 0C187.7 0 150.3 0 112.8 0C75.3 0 37.7 0 18.8 0L0 0Z" fill="#0aad80"></path><path d="M0 329L18.8 342.3C37.7 355.7 75.3 382.3 112.8 376.3C150.3 370.3 187.7 331.7 225.2 329.8C262.7 328 300.3 363 337.8 376.8C375.3 390.7 412.7 383.3 450.2 365.5C487.7 347.7 525.3 319.3 562.8 308.3C600.3 297.3 637.7 303.7 675.2 309C712.7 314.3 750.3 318.7 787.8 330.5C825.3 342.3 862.7 361.7 881.3 371.3L900 381L900 0L881.3 0C862.7 0 825.3 0 787.8 0C750.3 0 712.7 0 675.2 0C637.7 0 600.3 0 562.8 0C525.3 0 487.7 0 450.2 0C412.7 0 375.3 0 337.8 0C300.3 0 262.7 0 225.2 0C187.7 0 150.3 0 112.8 0C75.3 0 37.7 0 18.8 0L0 0Z" fill="#00a78c"></path><path d="M0 270L18.8 287.2C37.7 304.3 75.3 338.7 112.8 340.2C150.3 341.7 187.7 310.3 225.2 296C262.7 281.7 300.3 284.3 337.8 290C375.3 295.7 412.7 304.3 450.2 303.7C487.7 303 525.3 293 562.8 293.2C600.3 293.3 637.7 303.7 675.2 306.3C712.7 309 750.3 304 787.8 310.2C825.3 316.3 862.7 333.7 881.3 342.3L900 351L900 0L881.3 0C862.7 0 825.3 0 787.8 0C750.3 0 712.7 0 675.2 0C637.7 0 600.3 0 562.8 0C525.3 0 487.7 0 450.2 0C412.7 0 375.3 0 337.8 0C300.3 0 262.7 0 225.2 0C187.7 0 150.3 0 112.8 0C75.3 0 37.7 0 18.8 0L0 0Z" fill="#00a095"></path><path d="M0 262L18.8 269.7C37.7 277.3 75.3 292.7 112.8 294.5C150.3 296.3 187.7 284.7 225.2 280.3C262.7 276 300.3 279 337.8 274.5C375.3 270 412.7 258 450.2 264.2C487.7 270.3 525.3 294.7 562.8 305.2C600.3 315.7 637.7 312.3 675.2 300.2C712.7 288 750.3 267 787.8 251C825.3 235 862.7 224 881.3 218.5L900 213L900 0L881.3 0C862.7 0 825.3 0 787.8 0C750.3 0 712.7 0 675.2 0C637.7 0 600.3 0 562.8 0C525.3 0 487.7 0 450.2 0C412.7 0 375.3 0 337.8 0C300.3 0 262.7 0 225.2 0C187.7 0 150.3 0 112.8 0C75.3 0 37.7 0 18.8 0L0 0Z" fill="#00999a"></path><path d="M0 271L18.8 265.8C37.7 260.7 75.3 250.3 112.8 241.8C150.3 233.3 187.7 226.7 225.2 228C262.7 229.3 300.3 238.7 337.8 234.8C375.3 231 412.7 214 450.2 203.7C487.7 193.3 525.3 189.7 562.8 201.3C600.3 213 637.7 240 675.2 247.2C712.7 254.3 750.3 241.7 787.8 235.5C825.3 229.3 862.7 229.7 881.3 229.8L900 230L900 0L881.3 0C862.7 0 825.3 0 787.8 0C750.3 0 712.7 0 675.2 0C637.7 0 600.3 0 562.8 0C525.3 0 487.7 0 450.2 0C412.7 0 375.3 0 337.8 0C300.3 0 262.7 0 225.2 0C187.7 0 150.3 0 112.8 0C75.3 0 37.7 0 18.8 0L0 0Z" fill="#00919c"></path><path d="M0 201L18.8 204.2C37.7 207.3 75.3 213.7 112.8 213.3C150.3 213 187.7 206 225.2 199.8C262.7 193.7 300.3 188.3 337.8 191.8C375.3 195.3 412.7 207.7 450.2 204.2C487.7 200.7 525.3 181.3 562.8 181.7C600.3 182 637.7 202 675.2 205.8C712.7 209.7 750.3 197.3 787.8 200.3C825.3 203.3 862.7 221.7 881.3 230.8L900 240L900 0L881.3 0C862.7 0 825.3 0 787.8 0C750.3 0 712.7 0 675.2 0C637.7 0 600.3 0 562.8 0C525.3 0 487.7 0 450.2 0C412.7 0 375.3 0 337.8 0C300.3 0 262.7 0 225.2 0C187.7 0 150.3 0 112.8 0C75.3 0 37.7 0 18.8 0L0 0Z" fill="#00899c"></path><path d="M0 172L18.8 166C37.7 160 75.3 148 112.8 144.2C150.3 140.3 187.7 144.7 225.2 146.2C262.7 147.7 300.3 146.3 337.8 144C375.3 141.7 412.7 138.3 450.2 136.3C487.7 134.3 525.3 133.7 562.8 133C600.3 132.3 637.7 131.7 675.2 139.7C712.7 147.7 750.3 164.3 787.8 165.2C825.3 166 862.7 151 881.3 143.5L900 136L900 0L881.3 0C862.7 0 825.3 0 787.8 0C750.3 0 712.7 0 675.2 0C637.7 0 600.3 0 562.8 0C525.3 0 487.7 0 450.2 0C412.7 0 375.3 0 337.8 0C300.3 0 262.7 0 225.2 0C187.7 0 150.3 0 112.8 0C75.3 0 37.7 0 18.8 0L0 0Z" fill="#00819c"></path><path d="M0 103L18.8 110C37.7 117 75.3 131 112.8 134C150.3 137 187.7 129 225.2 127C262.7 125 300.3 129 337.8 128.2C375.3 127.3 412.7 121.7 450.2 121.2C487.7 120.7 525.3 125.3 562.8 131C600.3 136.7 637.7 143.3 675.2 143.8C712.7 144.3 750.3 138.7 787.8 139.3C825.3 140 862.7 147 881.3 150.5L900 154L900 0L881.3 0C862.7 0 825.3 0 787.8 0C750.3 0 712.7 0 675.2 0C637.7 0 600.3 0 562.8 0C525.3 0 487.7 0 450.2 0C412.7 0 375.3 0 337.8 0C300.3 0 262.7 0 225.2 0C187.7 0 150.3 0 112.8 0C75.3 0 37.7 0 18.8 0L0 0Z" fill="#00799a"></path><path d="M0 59L18.8 64.2C37.7 69.3 75.3 79.7 112.8 81.3C150.3 83 187.7 76 225.2 77.8C262.7 79.7 300.3 90.3 337.8 94.5C375.3 98.7 412.7 96.3 450.2 96.8C487.7 97.3 525.3 100.7 562.8 94.3C600.3 88 637.7 72 675.2 73.2C712.7 74.3 750.3 92.7 787.8 95.5C825.3 98.3 862.7 85.7 881.3 79.3L900 73L900 0L881.3 0C862.7 0 825.3 0 787.8 0C750.3 0 712.7 0 675.2 0C637.7 0 600.3 0 562.8 0C525.3 0 487.7 0 450.2 0C412.7 0 375.3 0 337.8 0C300.3 0 262.7 0 225.2 0C187.7 0 150.3 0 112.8 0C75.3 0 37.7 0 18.8 0L0 0Z" fill="#007197"></path><path d="M0 26L18.8 27.7C37.7 29.3 75.3 32.7 112.8 37.3C150.3 42 187.7 48 225.2 53.8C262.7 59.7 300.3 65.3 337.8 61.8C375.3 58.3 412.7 45.7 450.2 44.5C487.7 43.3 525.3 53.7 562.8 58.7C600.3 63.7 637.7 63.3 675.2 60.2C712.7 57 750.3 51 787.8 46C825.3 41 862.7 37 881.3 35L900 33L900 0L881.3 0C862.7 0 825.3 0 787.8 0C750.3 0 712.7 0 675.2 0C637.7 0 600.3 0 562.8 0C525.3 0 487.7 0 450.2 0C412.7 0 375.3 0 337.8 0C300.3 0 262.7 0 225.2 0C187.7 0 150.3 0 112.8 0C75.3 0 37.7 0 18.8 0L0 0Z" fill="#006893"></path></svg>